<svg width="149" height="131" viewBox="0 0 149 131" fill="none" xmlns="http://www.w3.org/2000/svg">
<g clip-path="url(#clip0)">
<path d="M148.99 0H0V130.78H148.99V0Z" fill="#4E5E77"/>
<path d="M30.5 97.47V16.59H42L67.9 57.47C73.2644 65.9295 78.0809 74.7242 82.32 83.8L82.59 83.68C81.59 72.88 81.45 63.02 81.45 50.49V16.59H91.29V97.47H80.68L55 56.48C49.43 47.41 44 38.19 40 29.4L39.64 29.52C40.26 39.77 40.41 49.52 40.41 62.89V97.47H30.5Z" fill="white"/>
<path d="M47.58 35.68V97.64" stroke="white" stroke-width="7" stroke-miterlimit="10"/>
<path d="M66.2 18.09C72.4842 16.8855 78.8716 16.3027 85.27 16.35C95.76 16.35 102.46 18.12 107.48 22.22C111.66 25.39 114.24 30.22 114.24 36.54C114.24 44.35 109.03 51.23 100.56 54.25V54.57C108.26 56.42 117.26 62.77 117.26 74.86C117.319 77.883 116.732 80.8839 115.539 83.662C114.346 86.4401 112.573 88.9316 110.34 90.97C104.77 96.2 95.67 98.56 82.42 98.56C77.0005 98.572 71.5849 98.2715 66.2 97.66V18.09ZM76.63 51.22H86.21C97.14 51.22 103.61 45.4 103.61 37.56C103.61 28.18 96.51 24.39 85.94 24.39C82.8185 24.2935 79.6959 24.5451 76.63 25.14V51.22ZM76.63 89.9C79.5411 90.3444 82.4867 90.5218 85.43 90.43C96.28 90.43 106.25 86.43 106.25 74.7C106.25 63.7 96.73 59.09 85.33 59.07H76.63V89.9Z" fill="white"/>
</g>
<defs>
<clipPath id="clip0">
<rect width="148.99" height="130.78" fill="white"/>
</clipPath>
</defs>
</svg>
