<svg width="41" height="35" viewBox="0 0 41 35" fill="none" xmlns="http://www.w3.org/2000/svg">
<path d="M21.8617 27.414L13.9449 34.6669C13.708 34.7975 13.3998 35.1243 12.7598 34.95C12.428 34.8411 12.025 34.4925 11.954 34.1006V34.0788L9.67847 21.577L11.5273 20.292C11.7667 20.421 16.3353 22.8827 16.0545 22.7314L21.8616 25.8677C22.312 26.3033 22.312 26.9784 21.8617 27.414Z" fill="white"/>
<path d="M40.4293 1.30739L33.2389 34.1223C33.1678 34.4708 32.8834 34.7757 32.5041 34.9064C32.3619 34.9717 32.2197 34.9935 32.0775 34.9935C31.8405 34.9935 31.6034 34.9282 31.3901 34.7975C31.1517 34.641 13.6874 23.1782 14.7983 23.9074C4.2238 19.094 9.73962 21.6239 0.663672 17.4605C0.237026 17.2644 0 16.8724 0 16.4586C0.0237026 16.023 0.284431 15.6527 0.711077 15.4785L38.7938 0.0876947C39.1968 -0.0647668 39.6708 -0.0212063 40.0027 0.240156C40.0501 0.283717 40.1212 0.349057 40.1686 0.392618C40.4056 0.65398 40.5004 0.980683 40.4293 1.30739Z" fill="white"/>
<path d="M40.1686 0.392578L16.0546 22.7312L14.7984 23.9073L12.7599 34.9499C12.4281 34.841 12.0251 34.4924 11.9541 34.1004V34.0786L9.67856 21.5768L11.5274 20.2918L40.1686 0.392578Z" fill="white"/>
</svg>
